HIERARCHY
ROOT Hips
{
    OFFSET 0.000000 0.000000 0.000000
    CHANNELS 6 Xposition Yposition Zposition Zrotation Xrotation Yrotation
    JOINT Spine
    {
        OFFSET -0.000000 14.517291 0.000000
        CHANNELS 3 Zrotation Xrotation Yrotation
        JOINT Spine1
        {
            OFFSET -0.000000 37.558300 0.000000
            CHANNELS 3 Zrotation Xrotation Yrotation
            JOINT Neck
            {
                OFFSET -0.000000 37.404057 3.400369
                CHANNELS 3 Zrotation Xrotation Yrotation
                JOINT Head
                {
                    OFFSET -0.000000 24.785618 -3.540803
                    CHANNELS 3 Zrotation Xrotation Yrotation
                    End Site
                    {
                        OFFSET -0.000000 35.408028 0.000000
                    }
                }
            }
            JOINT LeftShoulder
            {
                OFFSET 6.992933 33.973492 -0.192664
                CHANNELS 3 Zrotation Xrotation Yrotation
                JOINT LeftArm
                {
                    OFFSET 21.527611 0.000000 0.000000
                    CHANNELS 3 Zrotation Xrotation Yrotation
                    JOINT LeftForeArm
                    {
                        OFFSET 56.353916 0.000000 0.000000
                        CHANNELS 3 Zrotation Xrotation Yrotation
                        JOINT LeftHand
                        {
                            OFFSET 47.774071 0.000000 0.000000
                            CHANNELS 3 Zrotation Xrotation Yrotation
                            End Site
                            {
                                OFFSET 26.556021 0.000000 0.000000
                            }
                        }
                    }
                }
            }
            JOINT RightShoulder
            {
                OFFSET -7.065357 33.973492 -0.192664
                CHANNELS 3 Zrotation Xrotation Yrotation
                JOINT RightArm
                {
                    OFFSET -21.527611 0.000000 0.000000
                    CHANNELS 3 Zrotation Xrotation Yrotation
                    JOINT RightForeArm
                    {
                        OFFSET -56.353916 0.000000 0.000000
                        CHANNELS 3 Zrotation Xrotation Yrotation
                        JOINT RightHand
                        {
                            OFFSET -47.774071 0.000000 0.000000
                            CHANNELS 3 Zrotation Xrotation Yrotation
                            End Site
                            {
                                OFFSET -26.556021 0.000000 0.000000
                            }
                        }
                    }
                }
            }
        }
    }
    JOINT LeftUpLeg
    {
        OFFSET 17.704014 0.000000 0.000000
        CHANNELS 3 Zrotation Xrotation Yrotation
        JOINT LeftLeg
        {
            OFFSET -0.000000 -81.181816 0.000000
            CHANNELS 3 Zrotation Xrotation Yrotation
            JOINT LeftFoot
            {
                OFFSET -0.000000 -62.821102 0.000000
                CHANNELS 3 Zrotation Xrotation Yrotation
                JOINT LeftToeBase
                {
                    OFFSET -0.000000 -11.507608 26.556021
                    CHANNELS 3 Zrotation Xrotation Yrotation
                    End Site
                    {
                        OFFSET -0.000000 0.000000 7.081605
                    }
                }
            }
        }
    }
    JOINT RightUpLeg
    {
        OFFSET -17.704014 0.000000 0.000000
        CHANNELS 3 Zrotation Xrotation Yrotation
        JOINT RightLeg
        {
            OFFSET -0.000000 -81.181816 0.000000
            CHANNELS 3 Zrotation Xrotation Yrotation
            JOINT RightFoot
            {
                OFFSET -0.000000 -62.821102 0.000000
                CHANNELS 3 Zrotation Xrotation Yrotation
                JOINT RightToeBase
                {
                    OFFSET -0.000000 -11.507608 26.556021
                    CHANNELS 3 Zrotation Xrotation Yrotation
                    End Site
                    {
                        OFFSET -0.000000 0.000000 7.081605
                    }
                }
            }
        }
    }
}
MOTION
Frames:    9
Frame Time:    0.008333
-12.371789    150.535721    -29.384890    0.498071    -0.276607    7.402084    -1.859630    2.234033    9.373879    -1.857632    0.141362    3.115133    1.334605    1.479599    -9.832756    8.105209    -1.211978    -9.186700    0.064305    5.829046    -8.448258    -38.036579    20.446234    -47.807468    0.502217    -30.579178    -124.078300    -7.909041    -29.253218    -8.407595    -0.991600    11.901551    1.435209    38.756916    13.202847    57.134785    -29.681856    -28.718664    49.854836    11.920117    -12.176936    33.037781    4.009660    -33.467838    -21.761593    -14.538638    30.094028    -18.206963    -3.858027    -3.176581    39.067440    0.000000    0.000000    0.000000    0.292853    15.874043    -21.878010    0.876906    20.533785    -5.603176    6.906960    -29.826548    -5.370424    0.000000    0.000000    0.000000    
-12.419257    150.510574    -29.383314    0.476553    -0.371658    7.434525    -1.861158    2.207183    9.402185    -1.872267    0.115094    3.124266    1.319592    1.524376    -9.860200    8.135508    -1.160630    -9.211778    0.075645    5.799009    -8.448849    -38.031662    20.529367    -47.790730    0.606571    -30.509073    -124.007195    -7.763873    -29.018723    -8.449766    -0.975752    11.916626    1.460970    38.831924    13.185285    56.973633    -29.629343    -28.670795    49.839676    11.856403    -12.177476    32.998119    4.035019    -33.410679    -21.808022    -14.556874    30.142403    -18.217762    -3.853751    -3.215316    39.081112    0.000000    0.000000    0.000000    0.352711    15.944960    -21.892384    0.874780    20.586435    -5.570406    6.857479    -29.870897    -5.428338    0.000000    0.000000    0.000000    
-12.459854    150.483948    -29.387081    0.451591    -0.455310    7.464424    -1.851576    2.176708    9.434062    -1.884327    0.101370    3.134883    1.278687    1.550469    -9.908788    8.203315    -1.086532    -9.251627    0.073090    5.804175    -8.447799    -37.989811    20.567659    -47.820656    0.585902    -30.448879    -124.039444    -7.688814    -29.001993    -8.350143    -0.966938    11.911702    1.471585    38.868214    13.202999    56.833450    -29.617661    -28.651619    49.784298    11.827050    -12.188648    32.993725    4.059611    -33.365067    -21.851231    -14.575384    30.185308    -18.211224    -3.828170    -3.225742    39.076183    0.000000    0.000000    0.000000    0.409785    16.004124    -21.912523    0.871522    20.632891    -5.561336    6.843875    -29.907486    -5.447987    0.000000    0.000000    0.000000    
-12.499946    150.459213    -29.387903    0.422652    -0.536030    7.492630    -1.839504    2.160841    9.456894    -1.895153    0.069379    3.142131    1.269876    1.578814    -9.940250    8.191633    -1.048333    -9.287405    0.067968    5.814420    -8.366901    -37.976616    20.572287    -47.895668    0.481057    -30.251612    -124.107925    -7.575106    -28.987583    -8.233853    -0.982299    11.926842    1.475727    38.891762    13.243702    56.743813    -29.653759    -28.652544    49.669086    11.842209    -12.199908    33.032856    4.088659    -33.322815    -21.899887    -14.602234    30.230343    -18.188368    -3.808619    -3.246422    39.069771    0.000000    0.000000    0.000000    0.471170    16.058146    -21.963495    0.848929    20.687313    -5.513715    6.815396    -29.941660    -5.473575    0.000000    0.000000    0.000000    
-12.534515    150.434158    -29.389072    0.398365    -0.608889    7.523936    -1.823520    2.131731    9.485840    -1.916176    0.052489    3.151761    1.196552    1.597139    -9.995402    8.275603    -0.978573    -9.327231    0.081589    5.809698    -8.336101    -38.034267    20.616434    -47.975582    0.466644    -30.168226    -124.148575    -7.498344    -28.938265    -8.109515    -0.992258    11.987712    1.466501    38.889179    13.251675    56.690048    -29.698427    -28.662638    49.544548    11.861134    -12.217918    33.082253    4.108142    -33.282471    -21.941427    -14.608247    30.270346    -18.210569    -3.798966    -3.279908    39.077339    0.000000    0.000000    0.000000    0.527757    16.108225    -22.013733    0.827859    20.731390    -5.510443    6.811982    -29.969124    -5.460118    0.000000    0.000000    0.000000    
-12.566548    150.408142    -29.387161    0.376150    -0.686461    7.547690    -1.811030    2.117629    9.519859    -1.942747    0.025644    3.162787    1.142130    1.629487    -10.045298    8.371466    -0.917943    -9.361676    0.093579    5.808619    -8.300203    -38.012218    20.660954    -48.032322    0.428986    -30.081966    -124.211563    -7.447058    -28.922546    -7.984737    -0.984340    12.022318    1.476002    38.919262    13.221923    56.585030    -29.676197    -28.629713    49.482048    11.862465    -12.206461    33.129169    4.126721    -33.236923    -21.981184    -14.608199    30.316957    -18.237024    -3.789913    -3.316206    39.075481    0.000000    0.000000    0.000000    0.574782    16.168083    -22.063335    0.826200    20.771877    -5.500716    6.800681    -30.003592    -5.469548    0.000000    0.000000    0.000000    
-12.594494    150.386566    -29.390156    0.361887    -0.750551    7.576668    -1.818511    2.095504    9.554294    -1.945022    -0.000336    3.173878    1.114084    1.668469    -10.104690    8.392556    -0.889710    -9.418399    0.089351    5.799567    -8.261616    -38.005932    20.692734    -48.091572    0.351687    -29.959148    -124.289917    -7.400938    -28.931755    -7.921411    -1.004259    12.047703    1.493634    38.980080    13.178451    56.458477    -29.640348    -28.592161    49.446533    11.866759    -12.192755    33.124344    4.127858    -33.203629    -22.044378    -14.618657    30.355997    -18.235798    -3.777745    -3.336843    39.091717    0.000000    0.000000    0.000000    0.612237    16.210009    -22.120312    0.813318    20.823074    -5.473466    6.790213    -30.035236    -5.473361    0.000000    0.000000    0.000000    
-12.620934    150.362503    -29.392872    0.350075    -0.812572    7.604161    -1.835294    2.075516    9.597812    -1.928050    -0.025812    3.187952    1.042425    1.690085    -10.182708    8.449617    -0.834526    -9.485551    0.067677    5.780048    -8.254381    -38.032066    20.682215    -48.103832    0.280031    -29.780615    -124.392143    -7.349082    -28.877371    -7.836352    -1.040614    12.060564    1.518508    39.016640    13.177550    56.317333    -29.652094    -28.596294    49.375488    11.865666    -12.210055    33.165123    4.133282    -33.163498    -22.115919    -14.644950    30.365234    -18.214733    -3.752999    -3.346402    39.106304    0.000000    0.000000    0.000000    0.647953    16.251787    -22.162565    0.797646    20.867695    -5.444600    6.775466    -30.078030    -5.487933    0.000000    0.000000    0.000000    
-12.644977    150.343002    -29.394966    0.342227    -0.873568    7.631018    -1.860026    2.059387    9.657376    -1.898983    -0.046681    3.207380    0.916472    1.727784    -10.273684    8.598732    -0.791363    -9.544415    0.032080    5.760512    -8.256762    -38.023407    20.682993    -48.138435    0.257918    -29.621840    -124.461449    -7.235406    -28.767633    -7.701505    -1.076941    12.061758    1.527847    39.028751    13.201895    56.167179    -29.701635    -28.623882    49.297043    11.894463    -12.234128    33.155773    4.130688    -33.124027    -22.194231    -14.666212    30.382376    -18.198639    -3.728418    -3.360616    39.129402    0.000000    0.000000    0.000000    0.673914    16.290800    -22.186119    0.797586    20.925081    -5.439296    6.768158    -30.107939    -5.495184    0.000000    0.000000    0.000000    
